<svg width="1920" height="1080" viewBox="0 0 1920 1080" xmlns="http://www.w3.org/2000/svg"><rect width="1920" height="1080" fill="#afe273"/><path d="M 0,1080 C 0,1080 0,180 0,180 C 116.38717948717951,154.6948717948718 232.77435897435902,129.3897435897436 354,123 C 475.225641025641,116.61025641025641 601.2897435897436,129.13589743589745 689,145 C 776.7102564102564,160.86410256410255 826.0666666666667,180.06666666666663 923,195 C 1019.9333333333333,209.93333333333337 1164.4435897435899,220.5974358974359 1274,205 C 1383.5564102564101,189.4025641025641 1458.1589743589743,147.54358974358973 1560,139 C 1661.8410256410257,130.45641025641027 1790.9205128205128,155.22820512820513 1920,180 C 1920,180 1920,1080 1920,1080 Z" fill="#0482ca" opacity="0.09999999999999999"/><path d="M 0,1080 C 0,1080 0,360 0,360 C 133.45897435897433,330.21794871794873 266.91794871794866,300.43589743589746 363,298 C 459.08205128205134,295.56410256410254 517.7871794871796,320.47435897435895 604,329 C 690.2128205128204,337.52564102564105 803.9333333333332,329.6666666666667 928,326 C 1052.0666666666668,322.3333333333333 1186.4794871794873,322.8589743589743 1305,336 C 1423.5205128205127,349.1410256410257 1526.148717948718,374.8974358974359 1626,381 C 1725.851282051282,387.1025641025641 1822.925641025641,373.55128205128204 1920,360 C 1920,360 1920,1080 1920,1080 Z" fill="#0482ca" opacity="0.19999999999999998"/><path d="M 0,1080 C 0,1080 0,540 0,540 C 76.5230769230769,567.1153846153846 153.0461538461538,594.2307692307693 260,575 C 366.9538461538462,555.7692307692307 504.3384615384616,490.19230769230774 615,476 C 725.6615384615384,461.80769230769226 809.5999999999999,499 922,509 C 1034.4,519 1175.2615384615385,501.8076923076924 1290,502 C 1404.7384615384615,502.1923076923076 1493.353846153846,519.7692307692307 1594,529 C 1694.646153846154,538.2307692307693 1807.323076923077,539.1153846153846 1920,540 C 1920,540 1920,1080 1920,1080 Z" fill="#0482ca" opacity="0.3"/><path d="M 0,1080 C 0,1080 0,720 0,720 C 74.24871794871797,719.1692307692308 148.49743589743593,718.3384615384615 262,716 C 375.50256410256407,713.6615384615385 528.2589743589743,709.8153846153846 655,718 C 781.7410256410257,726.1846153846154 882.4666666666667,746.4 986,734 C 1089.5333333333333,721.6 1195.8743589743592,676.5846153846154 1308,667 C 1420.1256410256408,657.4153846153846 1538.0358974358971,683.2615384615385 1641,698 C 1743.9641025641029,712.7384615384615 1831.9820512820515,716.3692307692307 1920,720 C 1920,720 1920,1080 1920,1080 Z" fill="#0482ca" opacity="0.39999999999999997"/><path d="M 0,1080 C 0,1080 0,900 0,900 C 130.5,889.2897435897436 261,878.5794871794872 373,889 C 485,899.4205128205128 578.5,930.9717948717948 677,939 C 775.5,947.0282051282052 879,931.5333333333335 994,915 C 1109,898.4666666666665 1235.5,880.8948717948717 1330,879 C 1424.5,877.1051282051283 1487,890.8871794871795 1580,897 C 1673,903.1128205128205 1796.5,901.5564102564102 1920,900 C 1920,900 1920,1080 1920,1080 Z" fill="#0482ca" opacity="0.49999999999999994"/></svg>